# xmcd
#
# Track frame offsets: 
#        150
#        15604
#        27964
#        49374
#        67137
#        79604
#        97977
#        110307
#        125010
#        142396
#        156971
#        166216
#        178376
#
# Disc length: 2680 seconds
#
# Revision: 0
# Processed by: cddbd v1.5.2PL0 Copyright (c) Steve Scherf et al.
# Submitted via: ExactAudioCopyFreeDBPlugin 1.0
#
DISCID=b80a760d
DTITLE=Nine Below Zero - Refrigerator
DYEAR=2000
DGENRE=Blues
TTITLE0=Money Or The Man
TTITLE1=We Rock The House
TTITLE2=Wild Kicking Horse
TTITLE3=Go Girl
TTITLE4=Cinnamon Man
TTITLE5=Tell Me Why Can't I Just Be Like You
TTITLE6=24 Miles Of America
TTITLE7=Bad Behaviour
TTITLE8=Alternative Swing
TTITLE9=Electric
TTITLE10=We Rock The House Again
TTITLE11=She's All The Rage (Bonus)
TTITLE12=Line Of Least Restistance (Bonus)
EXTD=
EXTT0=
EXTT1=
EXTT2=
EXTT3=
EXTT4=
EXTT5=
EXTT6=
EXTT7=
EXTT8=
EXTT9=
EXTT10=
EXTT11=
EXTT12=
PLAYORDER=
